<svg width="80" height="80" viewBox="0 0 80 80" fill="none" xmlns="http://www.w3.org/2000/svg">
<circle cx="40" cy="40" r="40" fill="url(#paint0_linear_0_129)"/>
<circle cx="40" cy="40" r="35" fill="url(#paint1_linear_0_129)"/>
<rect x="20" y="20" width="40" height="40" rx="20" fill="#77529B"/>
<path fill-rule="evenodd" clip-rule="evenodd" d="M45.0057 29.1449C48.6032 30.8421 50.7449 33.9554 50.9655 37.8093C51.0949 40.0683 50.8735 40.7127 50.0738 40.4023C49.7481 40.276 49.5762 39.6493 49.4741 38.2165C49.196 34.3125 46.7607 31.202 43.0831 30.0537C42.0287 29.7244 40.8537 29.4549 40.4726 29.4549C39.6667 29.4549 39.3187 29.026 39.5755 28.3495C39.8441 27.6412 42.7075 28.0608 45.0057 29.1449ZM33.4789 29.5741C33.7063 29.7532 34.5414 30.834 35.3342 31.9757C37.1212 34.5484 37.1957 35.438 35.7367 36.7888C35.1653 37.318 34.6977 38.0025 34.6977 38.3102C34.6977 40.264 38.3953 44.452 40.6655 45.0699C41.6558 45.3394 41.9993 45.3133 42.5888 44.9228C42.9833 44.6614 43.3063 44.331 43.3063 44.1888C43.3063 44.0465 43.6432 43.707 44.0549 43.4342C44.756 42.9696 44.8825 42.9741 46.0586 43.5048C47.7845 44.2836 50.3982 46.4367 50.7482 47.368C50.9806 47.986 50.8957 48.3806 50.3171 49.3755C48.488 52.5191 47.3496 52.7148 43.0596 50.6229C36.7587 47.5502 32.1437 42.8172 29.0099 36.2138C27.6026 33.2485 27.6434 32.4055 29.2752 30.7554C30.9767 29.0353 32.3173 28.6587 33.4789 29.5741ZM43.8999 31.4589C46.1836 32.3983 48.0828 35.1051 48.1603 37.5314C48.2013 38.8126 48.1522 38.9089 47.4621 38.9089C46.8066 38.9089 46.6995 38.7513 46.5437 37.5583C46.4466 36.8155 46.223 35.8548 46.0467 35.4233C45.5269 34.1504 43.6637 32.8115 41.8954 32.4403C40.2787 32.1011 39.5951 31.425 40.3687 30.9304C40.8552 30.6194 42.4329 30.8556 43.8999 31.4589ZM43.5143 34.2449C44.6922 34.9709 45.448 36.3917 45.3275 37.6526C45.1939 39.0461 44.1811 38.9827 43.8192 37.5583C43.487 36.2501 42.8993 35.57 41.8772 35.3107C40.979 35.0826 40.6189 34.6474 40.8424 34.0592C41.0642 33.4742 42.4172 33.5681 43.5143 34.2449Z" fill="white"/>
<defs>
<linearGradient id="paint0_linear_0_129" x1="67" y1="5.5" x2="40" y2="80" gradientUnits="userSpaceOnUse">
<stop stop-color="#AC48DB"/>
<stop offset="1" stop-color="#77529B"/>
</linearGradient>
<linearGradient id="paint1_linear_0_129" x1="40" y1="5" x2="40" y2="75" gradientUnits="userSpaceOnUse">
<stop stop-color="white"/>
<stop offset="0.569329" stop-color="white"/>
<stop offset="1" stop-color="white" stop-opacity="0.65"/>
</linearGradient>
</defs>
</svg>
