<svg width="38" height="24" viewBox="0 0 38 24" fill="none" xmlns="http://www.w3.org/2000/svg">
<g clip-path="url(#clip0_0_167)">
<path d="M-2.6106 -0.130432V24.134H40.6104V-0.130432H-2.6106Z" fill="#012169"/>
<path d="M-2.6106 -0.130432L40.6104 24.134L-2.6106 -0.130432ZM40.6104 -0.130432L-2.6106 24.1318L40.6104 -0.130432Z" fill="white"/>
<path d="M39.6449 26.3041L19.0002 14.713L-1.64451 26.3041L-3.57617 21.9597L14.1671 11.9997L-3.57617 2.0397L-1.64451 -2.30475L19.0002 9.28636L39.6449 -2.30475L41.5765 2.0397L23.8333 11.9997L41.5765 21.9597L39.6449 26.3041Z" fill="white"/>
<path d="M-2.6106 -0.130432L40.6104 24.134L-2.6106 -0.130432ZM40.6104 -0.130432L-2.6106 24.1318L40.6104 -0.130432Z" fill="white"/>
<path d="M39.9652 25.5794L18.9999 13.806L-1.96544 25.5794L-3.25586 22.6838L15.7798 11.9994L-3.25586 1.31493L-1.96544 -1.58063L18.9999 10.1927L39.9652 -1.58063L41.2556 1.31493L22.22 11.9994L41.2556 22.6838L39.9652 25.5794Z" fill="#C8102E"/>
<path d="M18.9999 -0.130432V24.134V-0.130432ZM-2.6106 12.0007H40.6104H-2.6106Z" fill="white"/>
<path d="M22.602 24.1318H15.3978V16.0451H-2.6106V7.95623H15.3978V-0.130432H22.602V7.95623H40.6104V16.0451H22.602V24.1318Z" fill="white"/>
<path d="M18.9999 -0.130432V24.134V-0.130432ZM-2.6106 12.0007H40.6104H-2.6106Z" fill="white"/>
<path d="M21.1612 24.1318H16.8387V14.4273H-2.6106V9.57401H16.8387V-0.130432H21.1612V9.57401H40.6104V14.4273H21.1612V24.1318Z" fill="#C8102E"/>
</g>
<defs>
<clipPath id="clip0_0_167">
<rect width="38" height="24" fill="white"/>
</clipPath>
</defs>
</svg>
