<svg width="80" height="80" viewBox="0 0 80 80" fill="none" xmlns="http://www.w3.org/2000/svg">
<circle cx="40" cy="40" r="40" fill="url(#paint0_linear_0_107)"/>
<circle cx="40" cy="40" r="35" fill="url(#paint1_linear_0_107)"/>
<path d="M45.8366 36.3827V36.3355C45.8366 33.5022 43.6266 31.4244 40.2833 31.4244C39.2599 31.4075 38.2452 31.6162 37.3116 32.0357C36.3779 32.4552 35.5481 33.0752 34.8811 33.8516C34.7884 33.9375 34.7139 34.0411 34.662 34.1563C34.6101 34.2715 34.5818 34.3959 34.5789 34.5222C34.5788 34.6387 34.6022 34.7541 34.6476 34.8614C34.693 34.9687 34.7596 35.0658 34.8433 35.1468C34.927 35.2279 35.0262 35.2913 35.1349 35.3333C35.2436 35.3752 35.3596 35.3949 35.4761 35.3911C35.7256 35.3849 35.9642 35.2874 36.1466 35.1172C36.6514 34.5257 37.2783 34.0505 37.9843 33.7244C38.6902 33.3984 39.4585 33.2291 40.2361 33.2283C42.465 33.2283 43.8533 34.6639 43.8533 36.4489V36.4961C43.8533 38.5833 42.1911 39.745 39.5655 39.9433C39.4592 39.9474 39.355 39.9739 39.2596 40.0211C39.1642 40.0683 39.0799 40.1351 39.0122 40.2171C38.9444 40.2991 38.8947 40.3945 38.8664 40.4971C38.8381 40.5996 38.8317 40.707 38.8477 40.8122V43.4094C38.8712 43.6432 38.981 43.8598 39.1557 44.017C39.3303 44.1742 39.5572 44.2606 39.7922 44.2594H39.8961C40.1298 44.2359 40.3465 44.1261 40.5036 43.9515C40.6608 43.7769 40.7473 43.5499 40.7461 43.315V41.3694C43.5416 40.9444 45.8366 39.4805 45.8366 36.3827Z" fill="url(#paint2_linear_0_107)"/>
<path d="M39.7922 48.925C40.4443 48.925 40.9728 48.3965 40.9728 47.7445C40.9728 47.0925 40.4443 46.5639 39.7922 46.5639C39.1402 46.5639 38.6117 47.0925 38.6117 47.7445C38.6117 48.3965 39.1402 48.925 39.7922 48.925Z" fill="url(#paint3_linear_0_107)"/>
<path d="M54.2799 35.0984C53.706 35.3613 53.0992 35.5455 52.476 35.6461C53.4727 38.4836 53.4759 41.5755 52.4851 44.4151C51.4943 47.2546 49.5683 49.6734 47.0228 51.2749C44.4773 52.8765 41.4632 53.5658 38.4746 53.23C35.486 52.8941 32.7001 51.553 30.5735 49.4265C28.4469 47.2999 27.1058 44.514 26.77 41.5254C26.4341 38.5367 27.1235 35.5227 28.725 32.9771C30.3266 30.4316 32.7453 28.5056 35.5849 27.5149C38.4244 26.5241 41.5163 26.5273 44.3538 27.5239C44.4545 26.9007 44.6388 26.294 44.9016 25.72C41.6586 24.5987 38.1313 24.6101 34.8957 25.7524C31.66 26.8946 28.9073 29.1003 27.0871 32.009C25.2669 34.9178 24.4867 38.3578 24.8741 41.7672C25.2614 45.1766 26.7933 48.354 29.2197 50.7803C31.646 53.2066 34.8233 54.7385 38.2327 55.1259C41.6421 55.5132 45.0821 54.7331 47.9909 52.9129C50.8997 51.0926 53.1053 48.3399 54.2476 45.1043C55.3898 41.8687 55.4012 38.3413 54.2799 35.0984Z" fill="url(#paint4_linear_0_107)"/>
<path d="M51.3333 33.3889C53.9413 33.3889 56.0555 31.2747 56.0555 28.6667C56.0555 26.0587 53.9413 23.9445 51.3333 23.9445C48.7253 23.9445 46.6111 26.0587 46.6111 28.6667C46.6111 31.2747 48.7253 33.3889 51.3333 33.3889Z" fill="url(#paint5_linear_0_107)"/>
<defs>
<linearGradient id="paint0_linear_0_107" x1="0" y1="40" x2="80" y2="40" gradientUnits="userSpaceOnUse">
<stop stop-color="#984063"/>
<stop offset="1" stop-color="#F6469D"/>
</linearGradient>
<linearGradient id="paint1_linear_0_107" x1="40" y1="5" x2="40" y2="75" gradientUnits="userSpaceOnUse">
<stop stop-color="white"/>
<stop offset="0.569329" stop-color="white"/>
<stop offset="1" stop-color="white" stop-opacity="0.72"/>
</linearGradient>
<linearGradient id="paint2_linear_0_107" x1="34.5789" y1="37.8414" x2="45.8366" y2="37.8414" gradientUnits="userSpaceOnUse">
<stop stop-color="#984063"/>
<stop offset="1" stop-color="#F6469D"/>
</linearGradient>
<linearGradient id="paint3_linear_0_107" x1="38.6117" y1="47.7445" x2="40.9728" y2="47.7445" gradientUnits="userSpaceOnUse">
<stop stop-color="#984063"/>
<stop offset="1" stop-color="#F6469D"/>
</linearGradient>
<linearGradient id="paint4_linear_0_107" x1="24.7771" y1="40.0551" x2="55.1127" y2="40.0551" gradientUnits="userSpaceOnUse">
<stop stop-color="#984063"/>
<stop offset="1" stop-color="#F6469D"/>
</linearGradient>
<linearGradient id="paint5_linear_0_107" x1="46.6111" y1="28.6667" x2="56.0555" y2="28.6667" gradientUnits="userSpaceOnUse">
<stop stop-color="#984063"/>
<stop offset="1" stop-color="#F6469D"/>
</linearGradient>
</defs>
</svg>
