<svg width="80" height="80" viewBox="0 0 80 80" fill="none" xmlns="http://www.w3.org/2000/svg">
<circle cx="40" cy="40" r="40" fill="url(#paint0_linear_0_90)"/>
<circle cx="40" cy="40" r="35" fill="url(#paint1_linear_0_90)"/>
<g clip-path="url(#clip0_0_90)">
<path fill-rule="evenodd" clip-rule="evenodd" d="M50.5 55.7185L40 61L29.5 55.7185L19 61V24.2819L29.5 19L40 24.2819L50.5 19L61 24.2819V61L50.5 55.7185Z" fill="#F2F2F2"/>
<path d="M25.3 44.2V32.44L29.495 30.3375L40 36.22L50.5 31.18L55.5401 32.86" stroke="url(#paint2_linear_0_90)" stroke-width="4" stroke-miterlimit="10"/>
<path d="M25.3 44.62V41.26L29.5 39.16L40 44.62L50.5 40L55.5401 37.9V32.44" stroke="url(#paint3_linear_0_90)" stroke-width="4" stroke-miterlimit="10"/>
<path d="M25.3 44.62L40 52.18L47.14 48.82V37.06L55.5401 32.86" stroke="#F29C1F" stroke-width="4" stroke-miterlimit="10"/>
<path fill-rule="evenodd" clip-rule="evenodd" d="M55.5399 34.33C54.7293 34.33 54.0699 33.6706 54.0699 32.86C54.0699 32.0494 54.7293 31.39 55.5399 31.39C56.3505 31.39 57.0099 32.0494 57.0099 32.86C57.0099 33.6706 56.3505 34.33 55.5399 34.33Z" fill="white"/>
<path d="M55.5399 32.02C56.0032 32.02 56.3799 32.3967 56.3799 32.86C56.3799 33.3233 56.0032 33.7 55.5399 33.7C55.0767 33.7 54.6999 33.3233 54.6999 32.86C54.6999 32.3967 55.0767 32.02 55.5399 32.02ZM55.5399 30.76C55.2641 30.76 54.991 30.8144 54.7362 30.92C54.4814 31.0255 54.2499 31.1803 54.0549 31.3753C53.6611 31.7692 53.4399 32.3034 53.4399 32.8604C53.44 33.4174 53.6613 33.9516 54.0552 34.3454C54.4491 34.7393 54.9834 34.9605 55.5404 34.9604C56.0974 34.9604 56.6315 34.739 57.0254 34.3451C57.4192 33.9512 57.6404 33.417 57.6404 32.86C57.6403 32.303 57.419 31.7688 57.0251 31.375C56.6312 30.9812 56.097 30.76 55.5399 30.76Z" fill="#2980BA"/>
<path fill-rule="evenodd" clip-rule="evenodd" d="M25.3 46.09C24.4894 46.09 23.83 45.4306 23.83 44.62C23.83 43.8094 24.4894 43.15 25.3 43.15C26.1106 43.15 26.77 43.8094 26.77 44.62C26.77 45.4306 26.1106 46.09 25.3 46.09Z" fill="white"/>
<path d="M25.3 43.78C25.7632 43.78 26.14 44.1568 26.14 44.62C26.14 45.0833 25.7632 45.46 25.3 45.46C24.8367 45.46 24.46 45.0833 24.46 44.62C24.46 44.1568 24.8367 43.78 25.3 43.78ZM25.3 42.52C25.0241 42.52 24.7511 42.5744 24.4963 42.68C24.2415 42.7855 24.0099 42.9403 23.8149 43.1353C23.6199 43.3303 23.4653 43.5619 23.3597 43.8167C23.2542 44.0715 23.1999 44.3446 23.2 44.6204C23.2 44.8962 23.2543 45.1693 23.3599 45.4241C23.4655 45.6789 23.6202 45.9104 23.8152 46.1055C24.0103 46.3005 24.2418 46.4551 24.4966 46.5607C24.7515 46.6662 25.0246 46.7205 25.3004 46.7204C25.8574 46.7204 26.3916 46.4991 26.7854 46.1052C27.1792 45.7112 27.4004 45.177 27.4004 44.62C27.4003 44.063 27.179 43.5288 26.7851 43.135C26.3912 42.7412 25.857 42.52 25.3 42.52Z" fill="#2980BA"/>
<path opacity="0.15" fill-rule="evenodd" clip-rule="evenodd" d="M19 61L29.5 55.7181V19L19 24.2819V61ZM40 24.2819V61L50.5 55.7181V19L40 24.2819Z" fill="#2C3E50"/>
</g>
<defs>
<linearGradient id="paint0_linear_0_90" x1="67" y1="5.5" x2="40" y2="80" gradientUnits="userSpaceOnUse">
<stop stop-color="#FFBD00"/>
<stop offset="1" stop-color="#A4E7BE"/>
</linearGradient>
<linearGradient id="paint1_linear_0_90" x1="40" y1="5" x2="40" y2="75" gradientUnits="userSpaceOnUse">
<stop stop-color="white"/>
<stop offset="0.569329" stop-color="white"/>
<stop offset="1" stop-color="white" stop-opacity="0.65"/>
</linearGradient>
<linearGradient id="paint2_linear_0_90" x1="40.42" y1="30.3375" x2="40.42" y2="44.2" gradientUnits="userSpaceOnUse">
<stop stop-color="#A1E8FD"/>
<stop offset="1" stop-color="#58B9EC"/>
</linearGradient>
<linearGradient id="paint3_linear_0_90" x1="25.3" y1="38.53" x2="55.5401" y2="38.53" gradientUnits="userSpaceOnUse">
<stop stop-color="#984063"/>
<stop offset="1" stop-color="#F6469D"/>
</linearGradient>
<clipPath id="clip0_0_90">
<rect width="42" height="42" fill="white" transform="translate(19 19)"/>
</clipPath>
</defs>
</svg>
