<svg width="80" height="80" viewBox="0 0 80 80" fill="none" xmlns="http://www.w3.org/2000/svg">
<circle cx="40" cy="40" r="40" fill="url(#paint0_linear_0_138)"/>
<circle cx="40" cy="40" r="35" fill="url(#paint1_linear_0_138)"/>
<rect x="20" y="20" width="40" height="40" rx="20" fill="#54A7D7"/>
<path d="M48.665 31.717L30.935 38.554C29.725 39.04 29.732 39.715 30.713 40.016L35.265 41.436L45.797 34.791C46.295 34.488 46.75 34.651 46.376 34.983L37.843 42.684H37.841L37.843 42.685L37.529 47.377C37.989 47.377 38.192 47.166 38.45 46.917L40.661 44.767L45.26 48.164C46.108 48.631 46.717 48.391 46.928 47.379L49.947 33.151C50.256 31.912 49.474 31.351 48.665 31.717Z" fill="white"/>
<defs>
<linearGradient id="paint0_linear_0_138" x1="67" y1="5.5" x2="40" y2="80" gradientUnits="userSpaceOnUse">
<stop stop-color="#A4E3E7"/>
<stop offset="1" stop-color="#54A7D7"/>
</linearGradient>
<linearGradient id="paint1_linear_0_138" x1="40" y1="5" x2="40" y2="75" gradientUnits="userSpaceOnUse">
<stop stop-color="white"/>
<stop offset="0.569329" stop-color="white"/>
<stop offset="1" stop-color="white" stop-opacity="0.65"/>
</linearGradient>
</defs>
</svg>
