<svg width="80" height="80" viewBox="0 0 80 80" fill="none" xmlns="http://www.w3.org/2000/svg">
<circle cx="40" cy="40" r="40" fill="url(#paint0_linear_0_118)"/>
<circle cx="40" cy="40" r="35" fill="url(#paint1_linear_0_118)"/>
<rect x="20" y="20" width="40" height="40" rx="20" fill="#526C8E"/>
<g clip-path="url(#clip0_0_118)">
<path fill-rule="evenodd" clip-rule="evenodd" d="M51.45 33.948C51.616 33.402 51.45 33 50.655 33H48.03C47.362 33 47.054 33.347 46.887 33.73C46.887 33.73 45.552 36.926 43.661 39.002C43.049 39.604 42.771 39.795 42.437 39.795C42.27 39.795 42.019 39.604 42.019 39.057V33.948C42.019 33.292 41.835 33 41.279 33H37.151C36.734 33 36.483 33.304 36.483 33.593C36.483 34.214 37.429 34.358 37.526 36.106V39.904C37.526 40.737 37.373 40.888 37.039 40.888C36.149 40.888 33.984 37.677 32.699 34.003C32.45 33.288 32.198 33 31.527 33H28.9C28.15 33 28 33.347 28 33.73C28 34.412 28.89 37.8 32.145 42.281C34.315 45.341 37.37 47 40.153 47C41.822 47 42.028 46.632 42.028 45.997V43.684C42.028 42.947 42.186 42.8 42.715 42.8C43.105 42.8 43.772 42.992 45.33 44.467C47.11 46.216 47.403 47 48.405 47H51.03C51.78 47 52.156 46.632 51.94 45.904C51.702 45.18 50.852 44.129 49.725 42.882C49.113 42.172 48.195 41.407 47.916 41.024C47.527 40.533 47.638 40.314 47.916 39.877C47.916 39.877 51.116 35.451 51.449 33.948H51.45Z" fill="white"/>
</g>
<defs>
<linearGradient id="paint0_linear_0_118" x1="67" y1="5.5" x2="40" y2="80" gradientUnits="userSpaceOnUse">
<stop stop-color="#A3E2F2"/>
<stop offset="1" stop-color="#6292CF"/>
</linearGradient>
<linearGradient id="paint1_linear_0_118" x1="40" y1="5" x2="40" y2="75" gradientUnits="userSpaceOnUse">
<stop stop-color="white"/>
<stop offset="0.569329" stop-color="white"/>
<stop offset="1" stop-color="white" stop-opacity="0.65"/>
</linearGradient>
<clipPath id="clip0_0_118">
<rect width="24" height="24" fill="white" transform="translate(28 28)"/>
</clipPath>
</defs>
</svg>
