<svg width="113" height="21" viewBox="0 0 113 21" fill="none" xmlns="http://www.w3.org/2000/svg">
<g clip-path="url(#clip0_0_53)">
<path d="M57.702 5.63679L56.8996 8.86441C56.2755 8.57032 55.6812 8.42322 55.1165 8.42322C54.4627 8.42322 53.9723 8.65542 53.6455 9.11983C53.3334 9.58423 53.1774 10.1802 53.1774 10.9078V16.6664H49.1208V5.38137H52.7985L52.9099 6.84424C52.9397 6.7978 52.9768 6.74358 53.0214 6.6817C53.066 6.60426 53.1699 6.47272 53.3334 6.28696C53.5117 6.08575 53.6975 5.91543 53.8906 5.77611C54.0838 5.62131 54.3364 5.48972 54.6485 5.38137C54.9753 5.25752 55.3171 5.1956 55.6737 5.1956C56.0898 5.1956 56.4687 5.2343 56.8105 5.31171C57.1523 5.38911 57.3825 5.45877 57.5014 5.52069L57.702 5.63679ZM66.129 5.38137V8.53932H63.6103V12.0688C63.6103 12.6415 63.6772 13.0673 63.8109 13.3459C63.9447 13.6091 64.2344 13.7407 64.6802 13.7407L65.8615 13.6478V16.6896C65.3116 16.8135 64.5836 16.8754 63.6772 16.8754C62.2953 16.8754 61.2625 16.5116 60.5791 15.784C59.9104 15.041 59.5761 14.0735 59.5761 12.8815V8.53932L57.9267 8.44644V5.38137H59.6429L60.0441 1.92155H63.6103V5.38137H66.129ZM68.2544 15.6912V0.412231H72.311V5.47425C72.8905 5.28849 73.4551 5.1956 74.0049 5.1956C75.6394 5.1956 76.9693 5.73741 77.9946 6.82102C79.0347 7.9046 79.5548 9.29781 79.5548 11.0007C79.5548 12.7808 78.9976 14.2051 77.8832 15.2732C76.7836 16.3413 75.3348 16.8754 73.5369 16.8754C72.6156 16.8754 71.7092 16.7825 70.8176 16.5968C69.9409 16.3955 69.2945 16.1942 68.8785 15.993L68.2544 15.6912ZM75.476 11.0007C75.476 10.1802 75.305 9.54557 74.9634 9.09661C74.6364 8.64764 74.1758 8.42322 73.5814 8.42322C73.3288 8.42322 73.0911 8.46188 72.8682 8.53932C72.6601 8.6012 72.5189 8.6632 72.4447 8.72508L72.311 8.84118V13.3227C72.5933 13.5395 73.0168 13.6478 73.5814 13.6478C74.1906 13.6478 74.6587 13.4234 74.9856 12.9744C75.3125 12.5254 75.476 11.8676 75.476 11.0007ZM88.1791 5.38137V8.53932H85.6605V12.0688C85.6605 12.6415 85.7274 13.0673 85.8611 13.3459C85.9948 13.6091 86.2846 13.7407 86.7304 13.7407L87.9117 13.6478V16.6896C87.3619 16.8135 86.6338 16.8754 85.7274 16.8754C84.3455 16.8754 83.3127 16.5116 82.6292 15.784C81.9606 15.041 81.6262 14.0735 81.6262 12.8815V8.53932L79.9769 8.44644V5.38137H81.6931L82.0943 1.92155H85.6605V5.38137H88.1791ZM101.427 9.95576V16.6664H97.3924V10.0254C97.3924 9.53001 97.2885 9.14305 97.0804 8.86441C96.8873 8.57032 96.6123 8.42322 96.2557 8.42322C95.9288 8.42322 95.6093 8.50066 95.2973 8.65542C94.9852 8.81019 94.7475 8.96507 94.5841 9.11983L94.3612 9.35203V16.6664H90.3046V5.38137H94.0714L94.1828 6.40306C94.2868 6.31018 94.428 6.19408 94.6063 6.05475C94.7846 5.91543 95.1413 5.73741 95.6762 5.52069C96.2111 5.28849 96.7312 5.17238 97.2364 5.17238C98.6629 5.17238 99.7179 5.59809 100.401 6.4495C101.085 7.30087 101.427 8.46966 101.427 9.95576Z" fill="#211D2E"/>
<path d="M21.104 5.19571C21.6241 5.19571 22.0921 5.28859 22.5081 5.47435C22.9391 5.64463 23.2289 5.81487 23.3774 5.98519L23.6226 6.26384C24.7964 5.53627 25.9629 5.17249 27.1219 5.17249C28.5038 5.17249 29.5514 5.56723 30.2646 6.35672C30.9779 7.14621 31.3345 8.29944 31.3345 9.81654V16.6665H27.3894V10.0023C27.3894 8.94961 27.0328 8.42332 26.3195 8.42332C26.0818 8.42332 25.8366 8.49298 25.584 8.6323C25.3314 8.75618 25.1457 8.88773 25.0268 9.02705L24.8262 9.23603V16.6665H20.8365V10.0023C20.8365 9.46046 20.7696 9.06571 20.6359 8.81807C20.5022 8.55486 20.2644 8.42332 19.9227 8.42332C19.6552 8.42332 19.3803 8.50842 19.098 8.67874C18.8305 8.83351 18.6224 8.98839 18.4739 9.14315L18.2733 9.37535V16.6665H14.239V5.38147H18.0058L18.095 6.42638C18.1989 6.3335 18.3327 6.2174 18.4962 6.07808C18.6745 5.93875 19.0236 5.76077 19.5437 5.54401C20.0787 5.31181 20.5988 5.19571 21.104 5.19571Z" fill="#211D2E"/>
<path d="M4.59211 20.8879V18.8273C3.75851 18.701 2.9628 18.4958 2.20498 18.2115C1.46232 17.9273 0.924269 17.6747 0.590829 17.4536L0.113403 17.1221L1.90943 13.3562C2.04584 13.4667 2.24287 13.6009 2.50053 13.7588C2.75819 13.9009 3.26593 14.1062 4.02375 14.3746C4.79672 14.6273 5.56212 14.7536 6.31994 14.7536C7.00197 14.7536 7.54002 14.6352 7.93409 14.3983C8.32816 14.1615 8.52519 13.8536 8.52519 13.4746C8.52519 13.2062 8.32058 12.9772 7.91136 12.7878C7.51729 12.5825 7.01713 12.4167 6.41088 12.2904C5.81978 12.1641 5.16805 11.9825 4.4557 11.7456C3.75851 11.493 3.10679 11.2088 2.50053 10.893C1.90943 10.5772 1.40927 10.0956 1.00005 9.44822C0.605985 8.78505 0.408953 8.01135 0.408953 7.12713C0.408953 5.95868 0.787862 4.94024 1.54568 4.07181C2.31866 3.20337 3.33413 2.59546 4.59211 2.24809V0.0217285H8.45699V2.01124C9.26027 2.09019 10.0105 2.2244 10.7077 2.41388C11.4049 2.60336 11.9051 2.77704 12.2082 2.93494L12.6629 3.17179L10.8441 7.0087C9.64676 6.42448 8.39636 6.13237 7.09291 6.13237C5.72884 6.13237 5.0468 6.44817 5.0468 7.07976C5.0468 7.26923 5.16047 7.43503 5.38782 7.57714C5.63032 7.71924 5.94103 7.83767 6.31994 7.93241C6.714 8.01135 7.15354 8.11399 7.63854 8.24031C8.12354 8.36662 8.62371 8.50084 9.13902 8.64294C9.65434 8.78505 10.1545 8.99032 10.6395 9.25875C11.1245 9.52717 11.5565 9.83507 11.9354 10.1824C12.3294 10.5298 12.6401 10.9877 12.8675 11.5562C13.11 12.1088 13.2312 12.7404 13.2312 13.4509C13.2312 14.6667 12.8069 15.772 11.9581 16.7668C11.1245 17.7458 9.95747 18.4089 8.45699 18.7563V20.8879H4.59211Z" fill="url(#paint0_linear_0_53)"/>
<path fill-rule="evenodd" clip-rule="evenodd" d="M46.8104 15.0296C47.4997 13.8067 47.895 12.3822 47.895 10.8615C47.895 6.30891 44.3524 2.61829 39.9825 2.61829C35.6125 2.61829 32.0699 6.30891 32.0699 10.8615C32.0699 15.414 35.6125 19.1047 39.9825 19.1047C41.4422 19.1047 42.8095 18.6929 43.9834 17.9748L47.8452 19.0528L46.8104 15.0296Z" fill="url(#paint1_radial_0_53)"/>
<path d="M36.2459 12.4642C37.0957 12.4642 37.7845 11.7466 37.7845 10.8614C37.7845 9.97616 37.0957 9.25854 36.2459 9.25854C35.3962 9.25854 34.7074 9.97616 34.7074 10.8614C34.7074 11.7466 35.3962 12.4642 36.2459 12.4642Z" fill="white"/>
<path d="M39.9825 12.4642C40.8322 12.4642 41.5211 11.7466 41.5211 10.8614C41.5211 9.97616 40.8322 9.25854 39.9825 9.25854C39.1328 9.25854 38.444 9.97616 38.444 10.8614C38.444 11.7466 39.1328 12.4642 39.9825 12.4642Z" fill="white"/>
<path d="M43.719 12.4642C44.5687 12.4642 45.2575 11.7466 45.2575 10.8614C45.2575 9.97616 44.5687 9.25854 43.719 9.25854C42.8693 9.25854 42.1804 9.97616 42.1804 10.8614C42.1804 11.7466 42.8693 12.4642 43.719 12.4642Z" fill="white"/>
<path d="M109.524 1.92163H106.18C104.334 1.92163 102.837 3.48104 102.837 5.40467V6.98787C102.837 8.9115 104.334 10.4709 106.18 10.4709H109.524C111.37 10.4709 112.867 8.9115 112.867 6.98787V5.40467C112.867 3.48104 111.37 1.92163 109.524 1.92163Z" fill="url(#paint2_radial_0_53)"/>
<path d="M109.582 5.58972H106.066C105.729 5.58972 105.456 5.87421 105.456 6.22514C105.456 6.57607 105.729 6.86055 106.066 6.86055H109.582C109.919 6.86055 110.192 6.57607 110.192 6.22514C110.192 5.87421 109.919 5.58972 109.582 5.58972Z" fill="white"/>
<path d="M108.437 8.04165V4.4087C108.437 4.05603 108.162 3.77014 107.824 3.77014C107.485 3.77014 107.211 4.05603 107.211 4.4087V8.04165C107.211 8.39431 107.485 8.6802 107.824 8.6802C108.162 8.6802 108.437 8.39431 108.437 8.04165Z" fill="white"/>
</g>
<defs>
<linearGradient id="paint0_linear_0_53" x1="-0.136677" y1="12.3707" x2="10.6734" y2="12.3707" gradientUnits="userSpaceOnUse">
<stop stop-color="#42C1B8"/>
<stop offset="1" stop-color="#3BA49D"/>
</linearGradient>
<radialGradient id="paint1_radial_0_53" cx="0" cy="0" r="1" gradientUnits="userSpaceOnUse" gradientTransform="translate(39.1912 7.23448) rotate(73.8396) scale(13.6459 13.1851)">
<stop stop-color="#F6469D"/>
<stop offset="1" stop-color="#984063"/>
</radialGradient>
<radialGradient id="paint2_radial_0_53" cx="0" cy="0" r="1" gradientUnits="userSpaceOnUse" gradientTransform="translate(107.35 4.31543) rotate(70.4973) scale(7.21036 8.20132)">
<stop stop-color="#F6469D"/>
<stop offset="1" stop-color="#984063"/>
</radialGradient>
<clipPath id="clip0_0_53">
<rect width="113" height="21" fill="white"/>
</clipPath>
</defs>
</svg>
