<svg width="54" height="27" viewBox="0 0 54 27" fill="none" xmlns="http://www.w3.org/2000/svg">
<g clip-path="url(#clip0_0_622)">
<path d="M6.00813 26.8562V24.2069C4.91752 24.0445 3.87648 23.7806 2.88501 23.4151C1.91337 23.0497 1.20943 22.7249 0.773184 22.4407L0.14856 22.0144L2.49834 17.1725C2.6768 17.3147 2.93458 17.4872 3.27168 17.6902C3.60878 17.8729 4.27307 18.1368 5.26453 18.482C6.27583 18.8068 7.27721 18.9692 8.26868 18.9692C9.161 18.9692 9.86494 18.8169 10.3805 18.5124C10.8961 18.2079 11.1539 17.812 11.1539 17.3248C11.1539 16.9797 10.8862 16.6853 10.3508 16.4417C9.8352 16.1778 9.18083 15.9646 8.38766 15.8022C7.61431 15.6398 6.76165 15.4063 5.82967 15.1018C4.91752 14.777 4.06486 14.4116 3.27168 14.0056C2.49834 13.5995 1.84397 12.9804 1.30858 12.148C0.793014 11.2954 0.535232 10.3006 0.535232 9.16375C0.535232 7.66146 1.03097 6.35204 2.02243 5.23548C3.03373 4.11891 4.3623 3.33732 6.00813 2.8907V0.0282364H11.0646V2.58618C12.1156 2.68769 13.0971 2.86024 14.0093 3.10386C14.9214 3.34747 15.5758 3.57078 15.9724 3.7738L16.5673 4.07831L14.1877 9.01149C12.6212 8.26035 10.9853 7.88478 9.27998 7.88478C7.49534 7.88478 6.60302 8.2908 6.60302 9.10284C6.60302 9.34646 6.75174 9.55962 7.04918 9.74233C7.36645 9.92504 7.77295 10.0773 8.26868 10.1991C8.78425 10.3006 9.3593 10.4326 9.99384 10.595C10.6284 10.7574 11.2827 10.9299 11.9569 11.1127C12.6311 11.2954 13.2855 11.5593 13.92 11.9044C14.5546 12.2495 15.1197 12.6454 15.6155 13.092C16.131 13.5386 16.5375 14.1274 16.835 14.8582C17.1522 15.5688 17.3109 16.3808 17.3109 17.2944C17.3109 18.8575 16.7556 20.2786 15.6452 21.5576C14.5546 22.8163 13.0277 23.6689 11.0646 24.1155V26.8562H6.00813Z" fill="url(#paint0_linear_0_622)"/>
<path fill-rule="evenodd" clip-rule="evenodd" d="M38.0126 19.3243C38.9144 17.752 39.4316 15.9204 39.4316 13.9652C39.4316 8.11195 34.7968 3.36686 29.0795 3.36686C23.3622 3.36686 18.7274 8.11195 18.7274 13.9652C18.7274 19.8185 23.3622 24.5636 29.0795 24.5636C30.9893 24.5636 32.7781 24.0342 34.314 23.1109L39.3664 24.4969L38.0126 19.3243Z" fill="url(#paint1_radial_0_622)"/>
<path d="M24.1889 16.0254C25.3006 16.0254 26.2019 15.1028 26.2019 13.9646C26.2019 12.8265 25.3006 11.9038 24.1889 11.9038C23.0772 11.9038 22.176 12.8265 22.176 13.9646C22.176 15.1028 23.0772 16.0254 24.1889 16.0254Z" fill="white"/>
<path d="M29.0769 16.0254C30.1886 16.0254 31.0898 15.1028 31.0898 13.9646C31.0898 12.8265 30.1886 11.9038 29.0769 11.9038C27.9652 11.9038 27.064 12.8265 27.064 13.9646C27.064 15.1028 27.9652 16.0254 29.0769 16.0254Z" fill="white"/>
<path d="M33.9649 16.0254C35.0767 16.0254 35.9779 15.1028 35.9779 13.9646C35.9779 12.8265 35.0767 11.9038 33.9649 11.9038C32.8532 11.9038 31.952 12.8265 31.952 13.9646C31.952 15.1028 32.8532 16.0254 33.9649 16.0254Z" fill="white"/>
<path d="M49.4521 2.47011H45.078C42.6622 2.47011 40.7039 4.47506 40.7039 6.9483V8.98385C40.7039 11.4571 42.6622 13.462 45.078 13.462H49.4521C51.8679 13.462 53.8262 11.4571 53.8262 8.98385V6.9483C53.8262 4.47506 51.8679 2.47011 49.4521 2.47011Z" fill="url(#paint2_linear_0_622)"/>
<path d="M49.5267 7.18687H44.926C44.4853 7.18687 44.1281 7.55264 44.1281 8.00384C44.1281 8.45503 44.4853 8.8208 44.926 8.8208H49.5267C49.9674 8.8208 50.3247 8.45503 50.3247 8.00384C50.3247 7.55264 49.9674 7.18687 49.5267 7.18687Z" fill="white"/>
<path d="M48.0304 10.3393V5.66839C48.0304 5.21496 47.6714 4.84739 47.2285 4.84739C46.7856 4.84739 46.4265 5.21496 46.4265 5.66839V10.3393C46.4265 10.7928 46.7856 11.1603 47.2285 11.1603C47.6714 11.1603 48.0304 10.7928 48.0304 10.3393Z" fill="white"/>
</g>
<defs>
<linearGradient id="paint0_linear_0_622" x1="-0.178625" y1="15.9055" x2="13.9644" y2="15.9055" gradientUnits="userSpaceOnUse">
<stop stop-color="#42C1B8"/>
<stop offset="1" stop-color="#3BA49D"/>
</linearGradient>
<radialGradient id="paint1_radial_0_622" cx="0" cy="0" r="1" gradientUnits="userSpaceOnUse" gradientTransform="translate(28.0443 9.30196) rotate(73.5707) scale(17.5688 17.2266)">
<stop stop-color="#F6469D"/>
<stop offset="1" stop-color="#984063"/>
</radialGradient>
<linearGradient id="paint2_linear_0_622" x1="40.7039" y1="7.96608" x2="53.8262" y2="7.96608" gradientUnits="userSpaceOnUse">
<stop stop-color="#2A8CB7"/>
<stop offset="1" stop-color="#46C1F6"/>
</linearGradient>
<clipPath id="clip0_0_622">
<rect width="54" height="27" fill="white"/>
</clipPath>
</defs>
</svg>
